<svg width="320" height="222" viewBox="0 0 320 222" fill="none" xmlns="http://www.w3.org/2000/svg">
<path opacity="0.6" fill-rule="evenodd" clip-rule="evenodd" d="M147.867 0L104.213 92.5375C132.257 105.117 146.412 126.484 146.412 151.441C146.412 190.967 114.029 221.459 73.6492 221.459C32.3919 221.459 0 190.975 0 151.441C0 142.996 0.222523 136.674 3.37428 127.342C6.50929 118.063 12.5322 105.822 24.0532 85.4641L24.0601 85.4522L73.9702 0H147.867ZM103.792 93.4275C103.494 93.2933 103.194 93.1611 102.892 93.0289L146.314 0.98272H74.5354L24.9108 85.9485C1.87077 126.66 0.984615 134.626 0.984615 151.441C0.984615 190.384 32.8862 220.476 73.6492 220.476C113.526 220.476 145.428 190.384 145.428 151.441C145.428 126.924 131.55 105.871 103.792 93.4275ZM319.78 0L276.131 92.5276C305.047 105.113 318.326 126.495 318.326 151.441C318.326 190.967 285.943 221.459 245.563 221.459C205.2 221.459 171.914 190.982 171.914 151.441C171.914 142.995 172.136 136.669 175.402 127.332C178.65 118.051 184.897 105.81 196.859 85.4542L196.862 85.4503L245.878 0H319.78ZM275.711 93.4176C275.41 93.2861 275.109 93.1565 274.806 93.0289L318.228 0.98272H246.449L197.711 85.9485C173.785 126.66 172.898 134.626 172.898 151.441C172.898 190.384 205.686 220.476 245.563 220.476C285.44 220.476 317.342 190.384 317.342 151.441C317.342 126.918 304.324 105.86 275.711 93.4176Z" fill="white"/>
</svg>
